<?xml version="1.0" encoding="UTF-8" standalone="no"?>
<svg
   xmlns:dc="http://purl.org/dc/elements/1.1/"
   xmlns:cc="http://creativecommons.org/ns#"
   xmlns:rdf="http://www.w3.org/1999/02/22-rdf-syntax-ns#"
   xmlns:svg="http://www.w3.org/2000/svg"
   xmlns="http://www.w3.org/2000/svg"
   xmlns:sodipodi="http://sodipodi.sourceforge.net/DTD/sodipodi-0.dtd"
   xmlns:inkscape="http://www.inkscape.org/namespaces/inkscape"
   width="1900px"
   height="240px"
   version="1.1"
   viewBox="0 0 1000 125"
   preserveAspectRatio="xMinYMin meet"
   style="visibility:visible"
   id="svg3055"
   inkscape:version="0.48.2 r9819"
   sodipodi:docname="neuralquest.svg"
   inkscape:export-filename="D:\Users\CJONG\Pictures\neuralquest.png"
   inkscape:export-xdpi="90"
   inkscape:export-ydpi="90">
  <metadata
     id="metadata3067">
    <rdf:RDF>
      <cc:Work
         rdf:about="">
        <dc:format>image/svg+xml</dc:format>
        <dc:type
           rdf:resource="http://purl.org/dc/dcmitype/StillImage" />
        <dc:title></dc:title>
      </cc:Work>
    </rdf:RDF>
  </metadata>
  <defs
     id="defs3065" />
  <sodipodi:namedview
     pagecolor="#ffffff"
     bordercolor="#666666"
     borderopacity="1"
     objecttolerance="10"
     gridtolerance="10"
     guidetolerance="10"
     inkscape:pageopacity="0"
     inkscape:pageshadow="2"
     inkscape:window-width="1920"
     inkscape:window-height="1138"
     id="namedview3063"
     showgrid="false"
     inkscape:zoom="0.91998314"
     inkscape:cx="960.02821"
     inkscape:cy="352.40496"
     inkscape:window-x="-8"
     inkscape:window-y="-8"
     inkscape:window-maximized="1"
     inkscape:current-layer="svg3055"
     inkscape:showpageshadow="false" />
  <!--<rect x="0" y="0" width="100%" height="100%"/>	-->
  <path
     style="fill:rgb(128,0,128)"
     d="M0 0 L0 12 L6 13 L10 16 L17 19 L25 20 L28 23 L34 24 L38 27 L45 28 L53 29 L59 31 L64    32 L78 32 L83 34 L89 34 L97 36 L104 36 L114 37 L121 38 L134 40 L152 41 L160    43 L165 44 L180 44 L192 46 L212 49 L286 49 L357 51 L422 51 L507 49 L996 51    L996 44 L993 42 L995 34 L996 31 L995 22 L666 21 L374 21 L367 20 L217 19 L207    17 L203 16 L196 15 L183 15 L173 12 L156 12 L149 10 L134 10 L125 9 L115 7 L110    5 L104 5 L95 4 L90 2 L81 0 z"
     id="path3057" />
  <path
     style="fill:rgb(128,128,0)"
     d="M0 16 L0 50 L7 51 L14 54 L18 55 L25 60 L31 59 L38 63 L45 65 L53 65 L64 66 L75 69    L81 69 L87 72 L98 72 L116 74 L123 77 L134 77 L142 78 L163 80 L172 82 L192 82    L545 84 L998 83 L998 77 L995 75 L996 68 L997 58 L995 59 L995 54 L214 54 L203    54 L192 53 L180 51 L169 51 L161 49 L143 48 L134 46 L119 45 L103 42 L89 41 L83    40 L70 37 L62 36 L56 34 L47 33 L34 30 L28 27 L21 24 L14 23 L10 20 L4 16 z"
     id="path3059" />
  <path
     style="fill:rgb(255,0,102)"
     d="M0 54 L0 85 L7 86 L12 88 L21 91 L32 94 L44 98 L53 99 L64 102 L73 103 L84 103 L98    106 L115 108 L124 108 L137 109 L143 110 L165 111 L176 114 L194 114 L542 114 L997    115 L997 111 L993 104 L996 102 L996 94 L993 94 L993 88 L216 86 L205 86 L192    86 L183 86 L173 85 L161 85 L142 83 L134 80 L117 80 L103 78 L94 75 L84 75 L72    73 L64 72 L57 69 L47 69 L36 66 L28 65 L22 62 L15 61 L10 58 L5 54 z"
     id="path3061" />
  <flowRoot
     xml:space="preserve"
     id="flowRoot3069"
     style="font-size:200px;font-style:normal;font-variant:normal;font-weight:bold;font-stretch:normal;text-align:center;line-height:125%;letter-spacing:0px;word-spacing:0px;writing-mode:lr-tb;text-anchor:middle;fill:#999999;fill-opacity:1;stroke:none;font-family:Sans;-inkscape-font-specification:Sans Bold"
     transform="matrix(0.77691648,0,0,0.67982024,-248.93425,274.82397)"><flowRegion
       id="flowRegion3071"><rect
         id="rect3073"
         width="1470.6791"
         height="289.13574"
         x="234.78691"
         y="-424.14261"
         style="font-size:200px;fill:#999999" /></flowRegion><flowPara
       id="flowPara3075">Neuralquest</flowPara></flowRoot>  <flowRoot
     xml:space="preserve"
     id="flowRoot3069-1"
     style="font-size:200px;font-style:normal;font-variant:normal;font-weight:bold;font-stretch:normal;text-align:center;line-height:125%;letter-spacing:0px;word-spacing:0px;writing-mode:lr-tb;text-anchor:middle;fill:#ffff00;fill-opacity:1;stroke:none;visibility:visible;font-family:Sans;-inkscape-font-specification:Sans Bold"
     transform="matrix(0.77691647,0,0,0.67982026,-252.14583,271.66375)"
     inkscape:export-xdpi="90"
     inkscape:export-ydpi="90"><flowRegion
       id="flowRegion3071-7"><rect
         id="rect3073-4"
         width="1470.6791"
         height="289.13574"
         x="234.78691"
         y="-424.14261"
         style="font-size:200px;fill:#ffff00" /></flowRegion><flowPara
       id="flowPara3075-0">Neuralquest</flowPara></flowRoot></svg>
